HIERARCHY
ROOT Hips
{
  OFFSET 49.2485 84.2781 33.6882
  CHANNELS 6 Xposition Yposition Zposition Zrotation Xrotation Yrotation
  JOINT spine
  {
    OFFSET 0 6.2448 0.359107
    CHANNELS 3 Zrotation Xrotation Yrotation
    JOINT spine1
    {
      OFFSET 0 9.06941 0
      CHANNELS 3 Zrotation Xrotation Yrotation
      JOINT spine2
      {
        OFFSET 0 8.69014 0
        CHANNELS 3 Zrotation Xrotation Yrotation
        JOINT Neck
        {
          OFFSET 0 22.3112 1.06372
          CHANNELS 3 Zrotation Xrotation Yrotation
          JOINT Head
          {
            OFFSET 0 6.74081 0
            CHANNELS 3 Zrotation Xrotation Yrotation
            End Site
            {
              OFFSET 0 16.3165 -5.38097
            }
          }
        }
        JOINT RightShoulder
        {
          OFFSET -3.65916 9.38468 -0.509514
          CHANNELS 3 Zrotation Xrotation Yrotation
          JOINT RightArm
          {
            OFFSET 0 12.3089 0
            CHANNELS 3 Zrotation Xrotation Yrotation
            JOINT RightArmRoll
            {
              OFFSET 0 6.21375 0
              CHANNELS 3 Zrotation Xrotation Yrotation
              JOINT RightForeArm
              {
                OFFSET 0 18.0985 0
                CHANNELS 3 Zrotation Xrotation Yrotation
                JOINT RightForeArmRoll
                {
                  OFFSET 0 6.97279 0
                  CHANNELS 3 Zrotation Xrotation Yrotation
                  JOINT RightHand
                  {
                    OFFSET 0 13.9929 0
                    CHANNELS 3 Zrotation Xrotation Yrotation
                    End Site
                    {
                      OFFSET 0 0 0
                    }
                  }
                }
              }
            }
          }
        }
        JOINT LeftShoulder
        {
          OFFSET 3.65916 9.38468 -0.509514
          CHANNELS 3 Zrotation Xrotation Yrotation
          JOINT LeftArm
          {
            OFFSET 0 12.3089 0
            CHANNELS 3 Zrotation Xrotation Yrotation
            JOINT LeftArmRoll
            {
              OFFSET 0 6.21375 0
              CHANNELS 3 Zrotation Xrotation Yrotation
              JOINT LeftForeArm
              {
                OFFSET 0 18.0985 0
                CHANNELS 3 Zrotation Xrotation Yrotation
                JOINT LeftForeArmRoll
                {
                  OFFSET 0 6.97279 0
                  CHANNELS 3 Zrotation Xrotation Yrotation
                  JOINT LeftHand
                  {
                    OFFSET 0 13.9929 0
                    CHANNELS 3 Zrotation Xrotation Yrotation
                    End Site
                    {
                      OFFSET 0 0 0
                    }
                  }
                }
              }
            }
          }
        }
      }
    }
  }
  JOINT RightUpLeg
  {
    OFFSET -5.53515 -1.015 -0.851454
    CHANNELS 3 Zrotation Xrotation Yrotation
    JOINT RightUpLegRoll
    {
      OFFSET 0 16.4075 0
      CHANNELS 3 Zrotation Xrotation Yrotation
      JOINT RightLeg
      {
        OFFSET 0 -20.3181 0
        CHANNELS 3 Zrotation Xrotation Yrotation
        JOINT RightLegRoll
        {
          OFFSET 0 20.3846 0
          CHANNELS 3 Zrotation Xrotation Yrotation
          JOINT RightFoot
          {
            OFFSET 0 16.9668 0
            CHANNELS 3 Zrotation Xrotation Yrotation
            JOINT RightToeBase
            {
              OFFSET 0 14.1834 0
              CHANNELS 3 Zrotation Xrotation Yrotation
              End Site
              {
                OFFSET 0.0060118 6.8689 -0.791746
              }
            }
          }
        }
      }
    }
  }
  JOINT LeftUpLeg
  {
    OFFSET 5.53515 -1.015 -0.851454
    CHANNELS 3 Zrotation Xrotation Yrotation
    JOINT LeftUpLegRoll
    {
      OFFSET 0 16.4076 0
      CHANNELS 3 Zrotation Xrotation Yrotation
      JOINT LeftLeg
      {
        OFFSET 0 20.3181 0
        CHANNELS 3 Zrotation Xrotation Yrotation
        JOINT LeftLegRoll
        {
          OFFSET 0 20.5731 0
          CHANNELS 3 Zrotation Xrotation Yrotation
          JOINT LeftFoot
          {
            OFFSET 0 16.7783 0
            CHANNELS 3 Zrotation Xrotation Yrotation
            JOINT LeftToeBase
            {
              OFFSET 0 14.1834 0
              CHANNELS 3 Zrotation Xrotation Yrotation
              End Site
              {
                OFFSET -0.0269423 6.86889 -0.791746
              }
            }
          }
        }
      }
    }
  }
}
MOTION
Frames: 11
Frame Time: 0.00208333
48.5079 49.3341 -5.37806 -3.62865 1.91176 0.835247 -0.333356 0.710279 0.627656 -0.694718 5.41942 1.32637 -0.711917 7.06426 1.34002 26.8987 7.50875 -9.27078 -20.6724 5.61712 -2.50676 84.6675 -3.26126 -3.94617 99.603 42.5681 -23.5647 6.36111e-015 -3.18055e-015 -0 24.0846 49.6548 -12.8984 -7.50153e-006 1.26302e-005 -2.99999 8.02891 -4.95148 0.697646 -46.8706 -5.81615 2.86699 -135.945 37.2658 29.7393 -1.07572e-005 -7.09363e-007 6.15991e-007 -14.0674 45.7801 7.66908 3.32014e-006 1.03767e-005 3 -8.02898 -4.95126 -0.697605 -95.578 85.4591 -83.9336 180 7.01613e-015 179.262 -176.337 81.8631 175.878 -7.82736e-007 -6.7001e-007 0.929269 -12.0756 62.744 16.3817 8.13684 25.2378 -3.48855 3.3418 88.621 -177.843 4.54188e-006 -4.6773e-006 -0.962842 55.3 -85.0698 52.6518 -2.31271e-006 7.68175e-007 -1.37263 15.8437 65.6317 -17.8202 -8.1261 25.2332 3.4833 
48.5039 49.3395 -5.38955 -3.62564 1.90871 0.830904 -0.332709 0.714013 0.627334 -0.692814 5.42691 1.32403 -0.709996 7.07174 1.33764 26.865 7.49442 -9.25925 -20.6539 5.65437 -2.5006 84.6339 -3.26899 -3.94655 99.6527 42.5753 -23.5965 -1.76556e-031 -3.18055e-015 -3.18055e-015 24.0846 49.6564 -12.8992 -7.50153e-006 1.26302e-005 -2.99999 8.02891 -4.95148 0.697646 -46.8792 -5.83895 2.88541 -135.96 37.267 29.7579 -1.07572e-005 -7.09363e-007 6.15991e-007 -14.0719 45.787 7.67261 3.32014e-006 1.03767e-005 3 -8.02898 -4.95126 -0.697605 -95.6255 85.4544 -83.8874 180 7.01613e-015 179.262 -176.317 81.862 175.86 -7.82736e-007 -6.7001e-007 0.929269 -12.0754 62.7437 16.3824 8.13684 25.2378 -3.48855 3.13829 88.6258 -177.642 4.54188e-006 -4.6773e-006 -0.962842 55.3022 -85.071 52.6551 -2.31271e-006 7.68175e-007 -1.37272 15.8458 65.6333 -17.8211 -8.1261 25.2332 3.4833 
48.5027 49.3375 -5.38349 -3.62279 1.9056 0.826659 -0.332077 0.717727 0.627078 -0.690922 5.43435 1.32177 -0.708089 7.07918 1.33533 26.8326 7.47982 -9.24799 -20.6366 5.69162 -2.49445 84.6011 -3.27679 -3.94701 99.7015 42.5825 -23.628 -3.18055e-015 0 -3.18055e-015 24.0845 49.6581 -12.8999 -7.50153e-006 1.26302e-005 -2.99999 8.02891 -4.95148 0.697646 -46.8861 -5.86165 2.90368 -135.976 37.268 29.7772 -1.07572e-005 -7.09363e-007 6.15991e-007 -14.0763 45.7937 7.67606 3.32014e-006 1.03767e-005 3 -8.02898 -4.95126 -0.697605 -95.6741 85.4497 -83.8401 180 7.01613e-015 179.262 -176.297 81.8608 175.843 -7.82736e-007 -6.7001e-007 0.929269 -12.0753 62.7434 16.3833 8.13684 25.2378 -3.48855 2.93392 88.6306 -177.44 4.54188e-006 -4.6773e-006 -0.962842 55.3051 -85.0721 52.659 -2.31271e-006 7.68175e-007 -1.37281 15.848 65.6349 -17.8221 -8.1261 25.2332 3.4833 
48.511 49.3381 -5.38833 -3.62006 1.90245 0.822482 -0.331456 0.721427 0.626869 -0.68904 5.44176 1.31956 -0.706192 7.0866 1.33308 26.8011 7.46503 -9.23692 -20.6202 5.72887 -2.48831 84.569 -3.28465 -3.94753 99.7497 42.5897 -23.6594 9.54166e-015 9.54166e-015 -3.18055e-015 24.0846 49.6599 -12.9007 -7.50153e-006 1.26302e-005 -2.99999 8.02891 -4.95148 0.697646 -46.892 -5.88428 2.92185 -135.993 37.2687 29.7969 -1.07572e-005 -7.09363e-007 6.15991e-007 -14.0806 45.8004 7.67944 3.32014e-006 1.03767e-005 3 -8.02898 -4.95126 -0.697605 -95.7231 85.445 -83.7923 180 7.01613e-015 179.262 -176.277 81.8596 175.825 -7.82736e-007 -6.7001e-007 0.929269 -12.0752 62.7432 16.3842 8.13684 25.2378 -3.48855 2.72856 88.6354 -177.238 4.54188e-006 -4.6773e-006 -0.962842 55.3083 -85.0732 52.6633 -2.31271e-006 7.68175e-007 -1.3729 15.8503 65.6365 -17.8231 -8.1261 25.2332 3.4833 
48.5099 49.336 -5.38445 -3.6174 1.89927 0.818345 -0.33084 0.72512 0.626687 -0.687162 5.44916 1.31738 -0.7043 7.09399 1.33086 26.7701 7.45013 -9.22597 -20.6043 5.76612 -2.48217 84.5372 -3.29253 -3.94808 99.7975 42.5968 -23.6906 6.36111e-015 3.18055e-015 -3.18055e-015 24.0846 49.6616 -12.9015 -7.50153e-006 1.26302e-005 -2.99999 8.02891 -4.95148 0.697646 -46.8972 -5.90687 2.93996 -136.01 37.2693 29.8169 -1.07572e-005 -7.09363e-007 6.15991e-007 -14.0847 45.807 7.68279 3.32014e-006 1.03767e-005 3 -8.02898 -4.95126 -0.697605 -95.7722 85.4404 -83.7444 180 7.01613e-015 179.262 -176.257 81.8584 175.808 -7.82736e-007 -6.7001e-007 0.929269 -12.0751 62.743 16.3851 8.13684 25.2378 -3.48855 2.52199 88.6402 -177.034 4.54188e-006 -4.6773e-006 -0.962842 55.3118 -85.0743 52.6677 -2.31271e-006 7.68175e-007 -1.37299 15.8526 65.6382 -17.8241 -8.1261 25.2332 3.4833 
48.5091 49.3323 -5.37114 -3.61475 1.89608 0.814218 -0.330227 0.72881 0.626511 -0.685285 5.45656 1.31521 -0.702409 7.10139 1.32865 26.7392 7.43519 -9.21504 -20.5885 5.80337 -2.47603 84.5056 -3.30043 -3.94865 99.8453 42.604 -23.7218 9.54166e-015 3.18055e-015 -3.18055e-015 24.0846 49.6634 -12.9023 -7.50153e-006 1.26302e-005 -2.99999 8.02891 -4.95148 0.697646 -46.9023 -5.92945 2.95805 -136.028 37.2699 29.837 -1.07572e-005 -7.09363e-007 6.15991e-007 -14.0889 45.8136 7.68614 3.32014e-006 1.03767e-005 3 -8.02898 -4.95126 -0.697605 -95.8216 85.4357 -83.6962 180 7.01613e-015 179.262 -176.237 81.8573 175.791 -7.82736e-007 -6.7001e-007 0.929269 -12.075 62.7429 16.3861 8.13684 25.2378 -3.48855 2.31404 88.6449 -176.828 4.54188e-006 -4.6773e-006 -0.962842 55.3153 -85.0754 52.6722 -2.31271e-006 7.68175e-007 -1.37308 15.8549 65.6398 -17.8251 -8.1261 25.2332 3.4833 
48.5077 49.3364 -5.37715 -3.61207 1.89291 0.810071 -0.32961 0.732505 0.626322 -0.683405 5.46396 1.31303 -0.700515 7.10879 1.32642 26.7081 7.42031 -9.20407 -20.5725 5.84062 -2.46988 84.4737 -3.30831 -3.9492 99.8932 42.6111 -23.753 -7.95139e-015 3.18055e-015 -3.18055e-015 24.0847 49.6652 -12.9031 -7.50153e-006 1.26302e-005 -2.99999 8.02891 -4.95148 0.697646 -46.9076 -5.95204 2.97618 -136.045 37.2705 29.8569 -1.07572e-005 -7.09363e-007 6.15991e-007 -14.0931 45.8202 7.6895 3.32014e-006 1.03767e-005 3 -8.02898 -4.95126 -0.697605 -95.8706 85.431 -83.6485 180 7.01613e-015 179.262 -176.218 81.8561 175.773 -7.82736e-007 -6.7001e-007 0.929269 -12.0749 62.7427 16.387 8.13684 25.2378 -3.48855 2.10451 88.6497 -176.621 4.54188e-006 -4.6773e-006 -0.962842 55.3188 -85.0765 52.6766 -2.31271e-006 7.68175e-007 -1.37316 15.8573 65.6414 -17.8261 -8.1261 25.2332 3.4833 
48.5052 49.3399 -5.38253 -3.6093 1.88977 0.805875 -0.328985 0.736209 0.6261 -0.681517 5.47139 1.3108 -0.698612 7.11621 1.32415 26.6763 7.40557 -9.19295 -20.5559 5.87788 -2.46374 84.4414 -3.31616 -3.9497 99.9416 42.6182 -23.7845 3.18055e-015 3.18055e-015 -3.18055e-015 24.0847 49.6669 -12.9039 -7.50153e-006 1.26302e-005 -2.99999 8.02891 -4.95148 0.697646 -46.9137 -5.97469 2.99439 -136.062 37.2713 29.8765 -1.07572e-005 -7.09363e-007 6.15991e-007 -14.0974 45.8269 7.6929 3.32014e-006 1.03767e-005 3 -8.02898 -4.95126 -0.697605 -95.9191 85.4263 -83.6012 180 7.01613e-015 179.262 -176.198 81.8549 175.756 -7.82736e-007 -6.7001e-007 0.929269 -12.0748 62.7425 16.3879 8.13684 25.2378 -3.48855 1.89325 88.6544 -176.413 4.54188e-006 -4.6773e-006 -0.962842 55.3219 -85.0776 52.6807 -2.31271e-006 7.68175e-007 -1.37325 15.8595 65.6431 -17.8271 -8.1261 25.2332 3.4833 
48.506 49.3387 -5.379 -3.60641 1.88667 0.801601 -0.328349 0.739929 0.625824 -0.679618 5.47884 1.30852 -0.696698 7.12367 1.32183 26.6436 7.39104 -9.18162 -20.5383 5.91513 -2.45759 84.4084 -3.32393 -3.95014 99.9908 42.6253 -23.8161 1.59028e-015 6.36111e-015 -0 24.0846 49.6686 -12.9046 -7.50153e-006 1.26302e-005 -2.99999 8.02891 -4.95148 0.697646 -46.921 -5.99741 3.01271 -136.077 37.2723 29.8956 -1.07572e-005 -7.09363e-007 6.15991e-007 -14.1018 45.8337 7.69638 3.32014e-006 1.03767e-005 3 -8.02898 -4.95126 -0.697605 -95.9666 85.4216 -83.555 180 7.01613e-015 179.262 -176.178 81.8538 175.738 -7.82736e-007 -6.7001e-007 0.929269 -12.0747 62.7422 16.3887 8.13684 25.2378 -3.48855 1.68007 88.6591 -176.202 4.54188e-006 -4.6773e-006 -0.962842 55.3245 -85.0788 52.6844 -2.31271e-006 7.68175e-007 -1.37334 15.8617 65.6447 -17.8281 -8.1261 25.2332 3.4833 
48.5076 49.3438 -5.38806 -3.60334 1.88365 0.797219 -0.327695 0.743671 0.625476 -0.677704 5.48634 1.30615 -0.694766 7.13117 1.31941 26.6094 7.37682 -9.16998 -20.5193 5.95239 -2.45143 84.3744 -3.33163 -3.95048 100.041 42.6325 -23.8481 1.11319e-014 6.36111e-015 -6.36111e-015 24.0846 49.6702 -12.9054 -7.50153e-006 1.26302e-005 -2.99999 8.02891 -4.95148 0.697646 -46.9301 -6.02023 3.03121 -136.091 37.2737 29.914 -1.07572e-005 -7.09363e-007 6.15991e-007 -14.1064 45.8407 7.69995 3.32014e-006 1.03767e-005 3 -8.02898 -4.95126 -0.697605 -96.0131 85.4169 -83.5098 180 7.01613e-015 179.262 -176.158 81.8526 175.721 -7.82736e-007 -6.7001e-007 0.929269 -12.0745 62.7418 16.3893 8.13684 25.2378 -3.48855 1.46483 88.6638 -175.989 4.54188e-006 -4.6773e-006 -0.962842 55.3265 -85.08 52.6876 -2.31271e-006 7.68175e-007 -1.37343 15.8637 65.6462 -17.8291 -8.1261 25.2332 3.4833 
48.5094 49.3462 -5.38703 -3.60004 1.8807 0.7927 -0.32702 0.74744 0.625034 -0.675771 5.4939 1.30367 -0.692813 7.13872 1.3169 26.5735 7.36298 -9.15796 -20.4987 5.98965 -2.44527 84.3391 -3.33921 -3.9507 100.092 42.6396 -23.8805 -6.36111e-015 -3.18055e-015 -3.18055e-015 24.0844 49.6717 -12.9061 -7.50153e-006 1.26302e-005 -2.99999 8.02891 -4.95148 0.697646 -46.9412 -6.04319 3.04991 -136.103 37.2755 29.9315 -1.07572e-005 -7.09363e-007 6.15991e-007 -14.1113 45.8478 7.70365 3.32014e-006 1.03767e-005 3 -8.02898 -4.95126 -0.697605 -96.0582 85.4122 -83.4661 180 7.01613e-015 179.262 -176.137 81.8514 175.703 -7.82736e-007 -6.7001e-007 0.929269 -12.0743 62.7412 16.3898 8.13684 25.2378 -3.48855 1.24724 88.6684 -175.775 4.54188e-006 -4.6773e-006 -0.962842 55.3276 -85.0813 52.6899 -2.31271e-006 7.68175e-007 -1.37353 15.8656 65.6478 -17.83 -8.1261 25.2332 3.4833 
